<?xml version="1.0" encoding="UTF-8" standalone="no"?>
<!DOCTYPE svg PUBLIC "-//W3C//DTD SVG 1.1//EN" "http://www.w3.org/Graphics/SVG/1.1/DTD/svg11.dtd">
<svg width="100%" height="100%" viewBox="0 0 2481 2481" version="1.1" xmlns="http://www.w3.org/2000/svg" xmlns:xlink="http://www.w3.org/1999/xlink" xml:space="preserve" xmlns:serif="http://www.serif.com/" style="fill-rule:evenodd;clip-rule:evenodd;stroke-linejoin:round;stroke-miterlimit:2;">
    <g transform="matrix(1,0,0,1,-6807.52,0)">
        <g id="icon" transform="matrix(0.707071,0,0,1,4179.9,0)">
            <rect x="3716.21" y="0" width="3507.87" height="2480.32" style="fill:none;"/>
            <clipPath id="_clip1">
                <rect x="3716.21" y="0" width="3507.87" height="2480.32"/>
            </clipPath>
            <g clip-path="url(#_clip1)">
                <g transform="matrix(1.41429,0,0,1,-5911.58,0)">
                    <rect x="6446.29" y="-614.738" width="3542.22" height="3653.86" style="fill:rgb(44,228,181);"/>
                    <path d="M10009.3,-614.738L10009.3,3039.12C10009.3,3050.63 10000,3059.96 9988.51,3059.96L6446.29,3059.96C6434.79,3059.96 6425.46,3050.63 6425.46,3039.12L6425.46,-614.738C6425.46,-626.244 6434.79,-635.571 6446.29,-635.571L9988.51,-635.571C10000,-635.571 10009.3,-626.244 10009.3,-614.738ZM9988.51,-614.738L6446.29,-614.738L6446.29,3039.12L9988.51,3039.12L9988.51,-614.738Z" style="fill:white;"/>
                </g>
                <g transform="matrix(67.3573,0,0,47.6264,-62569.1,-46218.7)">
                    <path d="M1018.31,1020.87C1014.41,1013.72 1009.38,1002.43 1006.67,988.12C1003.76,972.83 1019.14,972.932 1019.14,972.932C1027.76,972.472 1032.43,971.049 1037.5,970.438C1036.76,972.135 1037.05,974.082 1036.66,975.955C1036.49,976.824 1036.3,982.218 1036.3,982.218C1036.3,982.218 1031.35,984.243 1024.71,984.922C1024.24,984.97 1023.68,984.992 1023.09,985.031L1022.77,985.058L1021.1,985.289C1019.74,985.616 1018.69,986.343 1019,988.12C1019.08,988.575 1019.5,990.393 1019.57,990.676L1026.85,988.8L1027.04,998.396L1027.03,998.399L1027.03,998.424L1022.29,1000.1C1022.75,1001.48 1024.72,1007.38 1028.19,1013.94C1029.71,1016.72 1031.36,1019.37 1033.12,1021.93C1033.29,1022.17 1033.47,1022.41 1033.65,1022.65L1028.83,1025.96L1023.71,1029.53C1023.71,1029.53 1023.7,1029.52 1023.69,1029.5L1023.65,1029.53C1021.67,1026.78 1019.9,1023.85 1018.31,1020.87Z" style="fill:white;"/>
                </g>
                <g transform="matrix(1.41429,0,0,1,-5911.58,0)">
                    <path d="M7726.99,602.11C7901.33,1540.65 8219.52,2305 8219.52,2305C8219.52,2305 7955.58,2475.28 7678.02,2475.28C7282.9,2475.28 7181,2359.03 7134.82,2281.16C7098.17,2219.37 7027.54,1964.44 7010.51,1882.7C6993.48,1800.97 6983.27,1709.01 7141.63,1504.67C7299.99,1300.34 7538.39,1276.5 7538.39,1276.5L7437.1,775.389L7726.99,602.11ZM7617.76,1617.18C7617.76,1617.18 7575.26,1607.38 7500.06,1640.07C7424.86,1672.76 7421.59,1730.52 7430.31,1763.22C7439.03,1795.91 7497.88,1970.28 7536.02,2075.99C7574.16,2181.7 7638.05,2172.86 7662.44,2169.72C7696.22,2165.36 7722.38,2161 7788.86,2131.57C7751.8,2068.36 7617.76,1617.18 7617.76,1617.18Z" style="fill:white;"/>
                </g>
            </g>
        </g>
    </g>
</svg>
